<svg xmlns="http://www.w3.org/2000/svg" width="147.871" height="182.835" viewBox="0 0 147.871 182.835"><defs><style>.a{fill:#ececec;}.b{fill:#ffc40c;}.c{fill:#5b5b5b;}.d{fill:#fff;}.e{fill:#d6111b;}</style></defs><g transform="translate(-1376.42 -809.175)"><g transform="translate(1379.549 980.678)"><ellipse class="a" cx="67.997" cy="5.666" rx="67.997" ry="5.666" transform="translate(0 0)"/></g><g transform="translate(1376.42 809.175)"><g transform="translate(72.319 69.839)"><circle class="b" cx="37.776" cy="37.776" r="37.776"/></g><g transform="translate(0 37.013)"><circle class="c" cx="60.442" cy="60.442" r="60.442"/><g transform="translate(12.476 12.269)"><path class="d" d="M1444.58,1013.675a2.827,2.827,0,0,1-2.366-3.232h0a2.83,2.83,0,0,1,3.232-2.366h0a2.832,2.832,0,0,1,2.366,3.232h0a2.836,2.836,0,0,1-2.8,2.4h0A2.756,2.756,0,0,1,1444.58,1013.675Zm12.566-2.493a2.832,2.832,0,0,1,2.285-3.291h0a2.828,2.828,0,0,1,3.286,2.285h0a2.827,2.827,0,0,1-2.281,3.291h0a2.74,2.74,0,0,1-.507.046h0A2.829,2.829,0,0,1,1457.146,1011.181Zm-27.621-2.47a2.834,2.834,0,0,1-1.192-3.826h0a2.835,2.835,0,0,1,3.825-1.192h0a2.829,2.829,0,0,1,1.192,3.825h0a2.833,2.833,0,0,1-2.511,1.519h0A2.813,2.813,0,0,1,1429.525,1008.711Zm41.986-1.668a2.831,2.831,0,0,1,1.1-3.853h0a2.835,2.835,0,0,1,3.853,1.1h0a2.834,2.834,0,0,1-1.1,3.853h0a2.8,2.8,0,0,1-1.378.359h0A2.832,2.832,0,0,1,1471.511,1007.043Zm-54.624-7.9h0a2.83,2.83,0,0,1,.113-4h0a2.826,2.826,0,0,1,4,.109h0a2.84,2.84,0,0,1-.109,4.007h0a2.839,2.839,0,0,1-1.949.775h0A2.831,2.831,0,0,1,1416.887,999.142Zm66.864-.68a2.833,2.833,0,0,1-.218-4h0a2.828,2.828,0,0,1,4-.218h0a2.828,2.828,0,0,1,.217,4h0a2.815,2.815,0,0,1-2.107.943h0A2.812,2.812,0,0,1,1483.751,998.462Zm-75.7-12.48a2.836,2.836,0,0,1,1.409-3.754h0a2.832,2.832,0,0,1,3.749,1.414h0a2.831,2.831,0,0,1-1.41,3.749h0a2.82,2.82,0,0,1-1.17.254h0A2.831,2.831,0,0,1,1408.047,985.982Zm84.489.38a2.83,2.83,0,0,1-1.5-3.712h0a2.835,2.835,0,0,1,3.718-1.5h0a2.836,2.836,0,0,1,1.5,3.713h0a2.842,2.842,0,0,1-2.612,1.727h0A2.817,2.817,0,0,1,1492.536,986.362Zm-88.582-15.694h0a2.837,2.837,0,0,1,2.548-3.1h0a2.833,2.833,0,0,1,3.092,2.547h0a2.833,2.833,0,0,1-2.543,3.1h0a2.758,2.758,0,0,1-.277.014h0A2.84,2.84,0,0,1,1403.954,970.669Zm92.984,1.41a2.835,2.835,0,0,1-2.625-3.028h0a2.833,2.833,0,0,1,3.028-2.625h0a2.835,2.835,0,0,1,2.629,3.024h0a2.835,2.835,0,0,1-2.824,2.633h0C1497.074,972.083,1497.006,972.083,1496.938,972.079Zm-89.788-13.812a2.839,2.839,0,0,1-2.095-3.418h0a2.837,2.837,0,0,1,3.418-2.094h0a2.84,2.84,0,0,1,2.095,3.418h0a2.834,2.834,0,0,1-2.757,2.171h0A3.058,3.058,0,0,1,1407.15,958.266Zm85.821-3.141h0a.016.016,0,0,1,0-.014h0c0-.014-.01-.032-.013-.05h0a2.83,2.83,0,0,1,2-3.468h0a2.834,2.834,0,0,1,3.468,2h0a.366.366,0,0,1,.018.073h0a2.835,2.835,0,0,1-2.013,3.463h0a2.742,2.742,0,0,1-.73.1h0A2.841,2.841,0,0,1,1492.971,955.125Zm-80.858-10.961a2.836,2.836,0,0,1-.875-3.912h0a2.837,2.837,0,0,1,3.912-.875h0a2.837,2.837,0,0,1,.875,3.912h0a2.83,2.83,0,0,1-2.4,1.315h0A2.818,2.818,0,0,1,1412.114,944.164Zm75.06-1.836a2.833,2.833,0,0,1,.771-3.935h0a2.832,2.832,0,0,1,3.93.771h0a2.827,2.827,0,0,1-.771,3.93h0a2.82,2.82,0,0,1-1.578.485h0A2.834,2.834,0,0,1,1487.173,942.328Zm-65.8-9.9a2.832,2.832,0,0,1,.444-3.98h0a2.827,2.827,0,0,1,3.98.44h0a2.83,2.83,0,0,1-.439,3.98h0a2.772,2.772,0,0,1-1.768.621h0A2.833,2.833,0,0,1,1421.37,932.423Zm56.184-.249h0A2.834,2.834,0,0,1,1477,928.2h0a2.834,2.834,0,0,1,3.971-.549h0a2.832,2.832,0,0,1,.548,3.966h0a2.812,2.812,0,0,1-2.262,1.124h0A2.825,2.825,0,0,1,1477.554,932.174Zm-43.609-7.833a2.834,2.834,0,0,1,1.714-3.622h0a2.831,2.831,0,0,1,3.621,1.714h0a2.83,2.83,0,0,1-1.713,3.622h0a2.791,2.791,0,0,1-.952.168h0A2.838,2.838,0,0,1,1433.945,924.34Zm31.215,1.337h0a2.835,2.835,0,0,1-1.8-3.577h0a2.836,2.836,0,0,1,3.581-1.8h0a2.835,2.835,0,0,1,1.8,3.577h0a2.838,2.838,0,0,1-2.693,1.949h0A2.886,2.886,0,0,1,1465.16,925.678Zm-16.7-4.914a2.834,2.834,0,0,1,2.792-2.874h0a2.839,2.839,0,0,1,2.875,2.8h0a2.831,2.831,0,0,1-2.792,2.869h-.041A2.834,2.834,0,0,1,1448.465,920.764Z" transform="translate(-1403.941 -917.89)"/></g></g><g transform="translate(21.369)"><circle class="e" cx="60.442" cy="60.442" r="60.442"/><g transform="translate(12.475 12.269)"><path class="d" d="M1491.719,932.025a2.825,2.825,0,0,1-2.366-3.228h0a2.833,2.833,0,0,1,3.232-2.371h0a2.832,2.832,0,0,1,2.366,3.232h0a2.835,2.835,0,0,1-2.8,2.4h0A2.83,2.83,0,0,1,1491.719,932.025Zm12.566-2.489a2.835,2.835,0,0,1,2.28-3.3h0a2.839,2.839,0,0,1,3.3,2.284h0a2.832,2.832,0,0,1-2.285,3.292h0a2.819,2.819,0,0,1-.508.045h0A2.833,2.833,0,0,1,1504.285,929.536Zm-27.62-2.475h0a2.834,2.834,0,0,1-1.188-3.826h0a2.834,2.834,0,0,1,3.822-1.192h0a2.832,2.832,0,0,1,1.192,3.826h0a2.835,2.835,0,0,1-2.511,1.519h0A2.806,2.806,0,0,1,1476.665,927.061Zm41.986-1.668a2.83,2.83,0,0,1,1.1-3.853h0a2.831,2.831,0,0,1,3.853,1.1h0a2.835,2.835,0,0,1-1.1,3.853h0a2.8,2.8,0,0,1-1.378.358h0A2.822,2.822,0,0,1,1518.651,925.393Zm-54.624-7.9a2.83,2.83,0,0,1,.113-4h0a2.835,2.835,0,0,1,4,.109h0a2.835,2.835,0,0,1-.109,4.007h0a2.827,2.827,0,0,1-1.949.775h0A2.83,2.83,0,0,1,1464.027,917.491Zm66.864-.68a2.838,2.838,0,0,1-.223-4h0a2.833,2.833,0,0,1,4-.217h0a2.827,2.827,0,0,1,.218,4h0a2.817,2.817,0,0,1-2.108.942h0A2.81,2.81,0,0,1,1530.891,916.811Zm-75.7-12.479h0a2.829,2.829,0,0,1,1.41-3.749h0a2.829,2.829,0,0,1,3.749,1.41h0a2.829,2.829,0,0,1-1.41,3.749h0a2.817,2.817,0,0,1-1.165.254h0A2.837,2.837,0,0,1,1455.187,904.332Zm84.489.381a2.83,2.83,0,0,1-1.5-3.713h0a2.834,2.834,0,0,1,3.717-1.5h0a2.838,2.838,0,0,1,1.5,3.713h0a2.838,2.838,0,0,1-2.611,1.727h0A2.821,2.821,0,0,1,1539.676,904.713Zm-88.583-15.694a2.837,2.837,0,0,1,2.548-3.1h0a2.843,2.843,0,0,1,3.1,2.548h0a2.84,2.84,0,0,1-2.548,3.1h0c-.1.009-.185.009-.276.009h0A2.836,2.836,0,0,1,1451.093,889.019Zm92.984,1.41a2.833,2.833,0,0,1-2.625-3.028h0a2.826,2.826,0,0,1,3.024-2.625h0a2.836,2.836,0,0,1,2.63,3.024h0a2.83,2.83,0,0,1-2.819,2.634h0C1544.213,890.433,1544.145,890.433,1544.077,890.429Zm-89.787-13.812a2.836,2.836,0,0,1-2.094-3.418h0a2.836,2.836,0,0,1,3.418-2.094h0a2.837,2.837,0,0,1,2.094,3.418h0a2.839,2.839,0,0,1-2.756,2.171h0A2.773,2.773,0,0,1,1454.29,876.616Zm85.821-3.141c0-.018,0-.032-.009-.05h0a.017.017,0,0,1,0-.014h0v0h0a2.833,2.833,0,0,1,2-3.472h0a2.833,2.833,0,0,1,3.468,2h0v0h0a.107.107,0,0,1,.009.036h0a.261.261,0,0,1,.013.036h0a2.832,2.832,0,0,1-2.012,3.463h0a2.722,2.722,0,0,1-.73.1h0A2.842,2.842,0,0,1,1540.11,873.475Zm-80.858-10.961a2.837,2.837,0,0,1-.874-3.912h0a2.835,2.835,0,0,1,3.912-.87h0a2.831,2.831,0,0,1,.875,3.908h0a2.83,2.83,0,0,1-2.4,1.315h0A2.82,2.82,0,0,1,1459.253,862.514Zm75.06-1.836a2.833,2.833,0,0,1,.771-3.935h0a2.836,2.836,0,0,1,3.93.771h0a2.827,2.827,0,0,1-.771,3.93h0a2.816,2.816,0,0,1-1.577.485h0A2.836,2.836,0,0,1,1534.313,860.678Zm-65.8-9.9a2.827,2.827,0,0,1,.44-3.98h0a2.827,2.827,0,0,1,3.98.44h0a2.827,2.827,0,0,1-.44,3.98h0a2.8,2.8,0,0,1-1.767.626h0A2.829,2.829,0,0,1,1468.515,850.773Zm56.179-.249h0a2.833,2.833,0,0,1-.553-3.966h0a2.834,2.834,0,0,1,3.971-.553h0a2.828,2.828,0,0,1,.548,3.966h0a2.818,2.818,0,0,1-2.262,1.124h0A2.825,2.825,0,0,1,1524.694,850.524Zm-43.609-7.833a2.836,2.836,0,0,1,1.718-3.622h0a2.829,2.829,0,0,1,3.617,1.714h0a2.834,2.834,0,0,1-1.714,3.622h0a2.811,2.811,0,0,1-.952.168h0A2.838,2.838,0,0,1,1481.085,842.69Zm31.215,1.337a2.832,2.832,0,0,1-1.8-3.577h0a2.83,2.83,0,0,1,3.577-1.8h0a2.835,2.835,0,0,1,1.8,3.577h0a2.838,2.838,0,0,1-2.693,1.949h0A2.884,2.884,0,0,1,1512.3,844.028Zm-16.7-4.914a2.835,2.835,0,0,1,2.792-2.874h0a2.835,2.835,0,0,1,2.874,2.792h0a2.832,2.832,0,0,1-2.792,2.874h-.041A2.835,2.835,0,0,1,1495.6,839.114Z" transform="translate(-1451.08 -836.239)"/></g></g><g transform="translate(58.658 38.227)"><path class="d" d="M1549.089,907.6l-10.986-2.543-5.783-9.615.017.005a3.87,3.87,0,0,0-6.684-.044l-5.828,9.659L1508.84,907.6a3.869,3.869,0,0,0-2.068,6.319l7.408,8.531-.979,11.257a3.871,3.871,0,0,0,5.369,3.9l10.4-4.423,10.08,4.274a3.87,3.87,0,0,0,5.7-3.771l-.979-11.257,7.276-8.382a3.87,3.87,0,0,0-1.957-6.458Z" transform="translate(-1505.819 -893.503)"/></g></g></g></svg>