<svg xmlns="http://www.w3.org/2000/svg" width="120.276" height="158.587" viewBox="0 0 120.276 158.587"><defs><style>.a{fill:#ececec;}.b{fill:#5b5b5b;}.c{fill:#d6111b;}.d{fill:#ffc40c;}</style></defs><g transform="translate(-1283 -1967.248)"><ellipse class="a" cx="57.966" cy="4.83" rx="57.966" ry="4.83" transform="translate(1283 2116.174)"/><g transform="translate(1296.37 1967.248)"><path class="b" d="M1481.053,1335.589l-3.646.977a3.775,3.775,0,0,0-2.669,4.623l4.885,18.229,10.938-2.931-4.885-18.23A3.775,3.775,0,0,0,1481.053,1335.589Z" transform="translate(-1452.703 -1335.46)"/><path class="c" d="M1524.828,1474.005v0a157.056,157.056,0,0,1-18.5-42.56l-4.418-16.489c-.17-.828-.311-1.656-.533-2.482a42.638,42.638,0,0,0-53.481-29.791c-22.359,6.716-34.467,31.037-28.425,53.588l4.612,17.211a157.091,157.091,0,0,1,5.258,46.107v0Z" transform="translate(-1417.922 -1363.315)"/><path class="b" d="M1544.934,1653.186l1,3.725a10.713,10.713,0,1,0,20.7-5.545l-1-3.725Z" transform="translate(-1495.852 -1527.002)"/><g transform="translate(10.227 88.175)"><path class="d" d="M1543.042,1578.151a1.886,1.886,0,0,0,2.311,1.334L1591.2,1567.2a1.73,1.73,0,0,0,.221-.11q-.769-1.719-1.495-3.457l-45.555,12.206A1.886,1.886,0,0,0,1543.042,1578.151Z" transform="translate(-1504.878 -1563.633)"/><path class="d" d="M1464.994,1612.539a1.887,1.887,0,1,0-.977-3.646l-19.631,5.26q.237,1.863.432,3.729a1.772,1.772,0,0,0,.308-.019Z" transform="translate(-1444.386 -1591.363)"/></g><rect class="b" width="21.426" height="3.775" transform="matrix(0.966, -0.259, 0.259, 0.966, 49.082, 126.184)"/></g></g></svg>