<svg xmlns="http://www.w3.org/2000/svg" width="147.871" height="155.353" viewBox="0 0 147.871 155.353"><defs><style>.a{fill:#ececec;}.b{fill:#d6111b;}.c{fill:#5b5b5b;}.d{fill:#fff;}.e{fill:#ffc40c;}.f{fill:#ab1219;}</style></defs><g transform="translate(-887 -1971)"><ellipse class="a" cx="56.119" cy="4.677" rx="56.119" ry="4.677" transform="translate(903.582 2117)"/><g transform="translate(887 1971)"><path class="b" d="M465.983,390.927,335.421,425.911,353.253,470.4a14.482,14.482,0,0,0,17.191,8.6L462.2,454.413a14.482,14.482,0,0,0,10.587-16.044Z" transform="translate(-325.06 -343.699)"/><g transform="translate(13.484 0)"><g transform="translate(63.516)"><path class="c" d="M542.554,264.857a4.827,4.827,0,0,1,5.43,7.076L522.55,315.986a4.827,4.827,0,0,1-8.361-4.827l25.434-44.053A4.812,4.812,0,0,1,542.554,264.857Z" transform="translate(-513.542 -264.692)"/></g><g transform="translate(0 23.834)"><path class="c" d="M343.935,334.475a4.827,4.827,0,0,1,7.076-5.43l44.053,25.434a4.827,4.827,0,0,1-4.827,8.361l-44.053-25.434A4.809,4.809,0,0,1,343.935,334.475Z" transform="translate(-343.769 -328.398)"/></g></g><g transform="translate(46.694 67.853)"><path class="d" d="M464.454,453.992a3.744,3.744,0,0,0-2.646,4.582l7.747,28.91a3.741,3.741,0,0,0,7.228-1.936l-7.747-28.91A3.744,3.744,0,0,0,464.454,453.992ZM435.31,461.8a3.744,3.744,0,0,0-2.645,4.582l7.747,28.91a3.741,3.741,0,0,0,7.228-1.936l-7.747-28.91A3.744,3.744,0,0,0,435.31,461.8Zm58.279-15.616a3.749,3.749,0,0,0-2.645,4.582l7.747,28.91a3.741,3.741,0,0,0,7.227-1.936l-7.746-28.91A3.749,3.749,0,0,0,493.589,446.185Z" transform="translate(-432.537 -446.057)"/></g><path class="e" d="M453.331,363.06,313.408,400.552a2.4,2.4,0,0,1-2.934-1.694l-2.665-9.945a2.4,2.4,0,0,1,1.694-2.933l139.923-37.492a2.4,2.4,0,0,1,2.934,1.693l2.665,9.945A2.4,2.4,0,0,1,453.331,363.06Z" transform="translate(-307.727 -317.087)"/><path class="f" d="M338.249,432.962l128.813-34.515-1.078-7.52L335.423,425.911Z" transform="translate(-325.061 -343.699)"/></g></g></svg>