<svg xmlns="http://www.w3.org/2000/svg" width="37.333" height="32"><defs><linearGradient id="a" x1=".5" x2=".5" y2="1" gradientUnits="objectBoundingBox"><stop offset="0" stop-color="#36a9e1"/><stop offset="1" stop-color="#94dcff"/></linearGradient></defs><g transform="translate(-641.328 -4063)" fill="url(#a)"><path d="M675.995 4063h-21.333a2.666 2.666 0 00-2.667 2.666v14a2.666 2.666 0 002.667 2.667h16.373l6.466 7.113a.643.643 0 00.493.22.618.618 0 00.24-.046.663.663 0 00.427-.62v-23.334a2.666 2.666 0 00-2.666-2.666zm-8.587 14.313a.642.642 0 01.033-.68 8.744 8.744 0 001.167-2.966h-1.947a.668.668 0 01-.666-.667v-4a.668.668 0 01.667-.667h5.333a.668.668 0 01.667.667v4a4.5 4.5 0 01-4.667 4.666.656.656 0 01-.587-.353zm-9.413-8.313a.668.668 0 01.667-.667h5.333a.668.668 0 01.667.667v4a4.5 4.5 0 01-4.667 4.666.656.656 0 01-.587-.353.642.642 0 01.034-.68 8.745 8.745 0 001.167-2.966h-1.947a.668.668 0 01-.667-.667z"/><path d="M654.661 4083.666a4 4 0 01-4-4v-11.333h-6.667a2.666 2.666 0 00-2.666 2.667v23.333a.663.663 0 00.427.62.618.618 0 00.24.047.643.643 0 00.493-.22l6.466-7.113h16.374a2.666 2.666 0 002.667-2.667v-1.333z"/></g></svg>